<?xml version="1.0" encoding="utf-8"?>
<!-- Generator: Adobe Illustrator 19.0.0, SVG Export Plug-In . SVG Version: 6.00 Build 0)  -->
<svg version="1.1" id="_x31_" xmlns="http://www.w3.org/2000/svg" xmlns:xlink="http://www.w3.org/1999/xlink" x="0px" y="0px"
	 viewBox="0 0 761.9 189.9" style="enable-background:new 0 0 761.9 189.9;" xml:space="preserve">
<style type="text/css">
	.st0{display:none;}
</style>
<path id="XMLID_30_" class="st0" d="M661.4,51.1c0.6-1.7,1.7-3.1,3-4.4c1.4-1.2,2.9-2.2,4.6-3c1.7-0.8,3.5-1.4,5.3-1.8
	c1.9-0.5,3.7-0.8,5.3-1.1c4.7-0.3,9.3-0.1,13.8,0.6c0.8,0,1.7,0.1,2.6,0.4c1,0.3,1.4,1,1.3,2.1c-0.1,0.6-0.5,1.2-1,1.7
	c-0.5,0.5-1.1,0.6-1.8,0.5c-3.8-0.8-7.7-1.1-11.8-0.9s-7.7,1.4-11,3.6c-1.3,0.8-2.2,1.8-2.7,3.1c-0.5,1.3-1.3,2.3-2.3,3.1
	c-1.3,1-2.7,1-4.1,0C661.4,53.9,660.9,52.6,661.4,51.1z"/>
<g id="XMLID_70_">
	<path id="XMLID_2_" d="M76.2,64.7c7-6,40.3-36,49.5-34.8c9,1.1,8.9,7.1,6,15.6c-1,2.9-3.1,12.8-3.1,15.2c-0.1,8.5,7.6,9.6,13.8,9.5
		c7.2,0,15.6-3.9,20.9-6.7v-0.1c0.3-0.1,0.7-0.1,1-0.1c3.5-0.3,3.8,2.2,1,3.8c-10.2,5.7-22.3,13.5-31.6,12.1
		c-11-1.7-12.8-8.9-12-19.3c0.3-3.1-0.1-7.8-0.1-10.4c0-4.2-1.1-7.2-4.5-6.3c-4,1.1-11.1,5.8-16.5,10c-11.8,9.2-27.4,23.9-31.7,25
		c-1.5,1-1.3,0.8-3.3,1.1c-1.5-0.1-4.5-0.7-5.3-1.7c-0.7-1.4-1.5-2.5-1.9-3.8c-1-7.2,14.2-27.5,12.9-31.7c0,0-0.1-1.3-1.3-1.3
		c-4.5,0-14.7,4.6-24.6,12.5L29.8,65.9l-7.5,6.4C18.7,75,7.4,84.6,1.6,79.8c-1.9-1.7-1.9-4.6-0.7-7c5.3-10.7,13.4-21,20.9-30.6
		c1.9-2.9,0.8-4,2.5-7.2c0.1-1,0.6-1.9,1.4-2.9l1.1-1.1c2.4-1.7,6.7-2.4,9.7-1c2.9,1.3,4.7,4,4.5,6.5c-4.6,9.9-12.2,12.7-19.1,22
		c-1.4,1.8-3.2,4-4.6,6.4l1.3-1l0.1-0.1c4.7-3.5,8.9-5.8,13.4-8.8c10-6.8,20-13.2,31.8-20c4.9-2.8,15.3-10.4,21.7-8.5
		c1.4,0.8,1.5,1.3,1.9,2.8c1.8,2.9-4.3,15.7-7.5,22.5c-1.8,3.6-6.1,13.1-4.3,13.1C75.8,64.9,76,64.9,76.2,64.7z"/>
	<path id="XMLID_4_" d="M231.9,37.8c-1.5-2.4-8.9-4-11.7-2.8c-1.3,0.7-5.7,1.1-9.9,3.5c-6.4,3.6-15.7,10-20.6,12.8
		c-8.6,5-14.7,12.1-14.3,14.6c1.7,1.4,4.9,0.7,6.5-0.1c7.6-3.2,15.7-6.1,22.5-9.2c4.3-1.8,8.9-3.5,13.5-5.7
		c7.6-3.1,25.6-12.2,29.9-12.2c1.9,0,5.4,2.2,5.4,4.5c-0.1,7.4-10.6,17.4-10.6,22.4c0,1.9,1.5,3.2,5.6,3.2c1.5,0,3.5-0.3,5.8-0.6
		c10.4-2.4,24.5-7.1,31.8-12c3.5-0.6,3.9,1.9,1.1,3.9c-8.3,5.6-36.9,25.2-50.5,16.3c-3.1-1.9-3.9-5.7-3.5-9.7
		c0.6-5.4,3.2-11.4,4.5-13.9c1-3.3-4.2-2.6-5.6-1.8c-1.9,1-6.4,2.1-11.5,4.5c-2.5,1.1-5,3.3-7.5,4.5c-7.6,3.3-17.8,8.9-25.9,12.2
		c-8.6,3.6-15.2,5.3-18.6,5.4c-1.9,0-4.2-0.6-6.1-0.8c-2.8-1.5-3.8-2.8-4.2-5.1c-0.1-1.3,0.4-3.6,1.1-5.4c1.3-2.8,4.5-7.2,8.8-11.5
		c4.5-4.3,10.2-8.2,16.4-12.5c6.1-3.8,15.4-8.5,23.1-11.4c7.2-2.8,11.5-3.1,14.2-4.3c2.6-1,8.6-1,10.7-1.1c3.2-0.3,5,0.3,7.1,2.5
		l2.2,2.4C243.5,36.7,237.3,42.8,231.9,37.8z"/>
	<path id="XMLID_6_" d="M414.7,63.2c-2.2,1.3-4.5,0.8-8.1,1.1c-4,1.4-1.9,0-5.6,1.5l-1.4,0.6c-5.3,2.8-10.8,5.6-16.4,8.6
		c-1.4,1.1-1.8,1.4-2.2,1.4c-3.8,2.2-7.5,4.7-11.1,7.8c-8.1,17-17,30-28.5,45.1c-7,9-14,19.1-35.5,43.7
		c-1.5,1.8-17.5,19.2-24.3,16.7c-7.5-2.8,0.8-18.1,3.9-22.5c3.2-4.9,14.5-20,18.4-24.6c12.4-15.4,34.6-37.3,55.6-56
		c4.2-7.5,8.6-15.7,11.5-23.4c1.7-4,2.5-10.4,3.1-13.9c0.7-3.8,0.3-4.2-1.4-6.8c-1.4-2.1-1.5-2.6-4.3-2.4c-1.8,0.1-3.6,0.1-5.7,0.7
		c-3.6,1-7.4,2.8-8.1,3.2c-4.2,2.4-11.7,7-19.1,11.7c-5.3,3.3-12.7,8.2-17.2,11c-5.7,3.5-11,6.1-14.6,7.1
		c-5.4,1.5-12.1,3.6-16.3-0.3c-2.9-2.6-3.9-6.7-3.2-10.6c0.7-4,2.8-8.9,6-14.3c1.5-2.6,7-10.8,8.5-13.4c2.1-3.8,3.8-4.3,5.8-6.8
		c2.5-2.4,5.8-2.4,8.2-1c1.3,0.8,1.8,2.2,2.2,3.5c0.3,1.3-0.8,5.4-1.5,7c-0.8,1-1.9,1.9-3.6,3.8c-2.5,3.1-6.7,4.6-7.8,6.1
		c-1.9,2.2-4.7,6.5-5.7,10.2c-0.7,2.2-0.3,3.6,0.4,5.1c0.4,1,2.4,1,3.5,0.7c1.7-0.4,3.5-1.5,6-2.2c14-3.8,33.8-17.5,53.4-27.4
		c4.7-2.5,14-6.4,19.2-6.3c2.9,0,7.2,1.5,8.2,5c1.3,4.2-0.1,7.6-1.7,13.2c-1.7,6.3-5.6,14.5-7.5,19.5c-1.1,2.9-3.2,7.9-4.3,10.7
		c1.7-1.3,3.5-2.4,5.3-3.5c1.8-1.4,3.8-2.8,6-3.6c2.4-1.4,4.3-2.6,6.5-3.8c2.4-1.5,4.9-3.1,7.4-4.3c4.9-2.5,6-4,11.7-6.5
		c0.6-0.7,3.3-1.4,4.3-1.5c1.7-0.3,3.1-0.3,3.5-0.1c4.2,1,2.2,5-0.4,8.2L414.7,63.2z M352.3,99.1c-2.2,1.9-4.3,4-6.3,6.1
		c-5.6,5.8-10.7,13.5-16.7,19.3c-11,10.8-21.6,27-28.9,41.2l2.6-2.6c3.6-3.9,9.3-9.3,14-14.5c3.9-4.3,7-8.5,8.3-10.2
		C337.4,123.8,344.2,113.1,352.3,99.1z"/>
	<path id="XMLID_10_" d="M418.3,45.4c0.1-0.3,0.1-0.7,0.6-1.3c-0.4-2.1-0.4-4.5,0.1-5.3c2.8-3.8,4.6-5.4,8.9-7.9c0,0,0.1,0,0.3-0.1
		c0.7-0.7,1.4-1.3,1.9-1.5c2.9-1.3,5.4-2.1,7.9-1c2.6,1.1,4.3,3.9,2.6,7.1c-1.5,2.2-1.7,1.5-3.6,3.8c-1,1.1-3.1,2.2-4.3,3.3
		c-2.5,2.1-5.3,5.1-7,7.2c-1.8,2.5-1.5,2.6-2.9,5.4c-1.4,2.2-1.5,3.6-1.7,5c-0.4,2.1-0.1,3.8,2.5,3.9c1.4,0.1,3.1,0.8,5.4,0.4
		c5.4-0.8,8.8-2.8,15.4-5.7c10.8-4.9,14.6-7.8,30-17.1c2.5-1.4,5.7-4.2,10.2-7.6c2.1-1.5,3.5-3.3,5.3-4.2c1.7-1.4,8.9-1,10.8,1.4
		c3.5,3.8,2.4,7.1,1.3,9.2c-1.9,1.7-2.5,3.2-4.4,5.8c-3.6,5-7.4,13.2-7.5,15.6c-0.1,3.2,1.7,4.3,4.3,4.9c1.1,0.3,1.9,0.4,3.6,0.4
		c2.1,0,4.2,0,4.9-0.1c5.4-0.8,8.3-1.8,13.6-3.9c4-1.5,15.6-6.8,19.3-8.9c1.3-0.6,2.9-2.5,4-2.8l1.7,1.1c1.3,1.5,1,2.8-0.6,4.2
		c-4.5,3.1-16.7,8.9-22.1,11.7c-9.6,5-19.5,10.8-27.7,9.9c-6.4-0.8-11.3-7.5-10.6-15.9c0.4-6.1,2.5-11.1,4.5-17.1
		c0.4-1.4-1.4-1.4-2.2-1.1c-3.1,0.8-5.4,2.6-9.9,5.4c-6.7,4.2-16,11.1-26,16c-8.2,4-18.5,9.3-22.5,10.2c-3.2,0.7-9,1.5-12.2,0.1
		c-4.9-2.2-5.8-5.4-5-10C408.3,58.9,415.1,50.7,418.3,45.4z"/>
	<path id="XMLID_12_" d="M601.5,64.7c7-6,40.3-36,49.5-34.8c9,1.1,8.9,7.1,6,15.6c-1,2.9-3.1,12.8-3.1,15.2
		c-0.1,8.5,7.6,9.6,13.8,9.5c7.2,0,15.6-3.9,20.9-6.7v-0.1c0.3-0.1,0.7-0.1,1-0.1c3.5-0.3,3.8,2.2,1,3.8
		c-10.2,5.7-22.3,13.5-31.6,12.1c-11-1.7-12.8-8.9-12-19.3c0.3-3.1-0.1-7.8-0.1-10.4c0-4.2-1.1-7.2-4.5-6.3c-4,1.1-11.1,5.8-16.5,10
		c-11.8,9.2-27.4,23.9-31.7,25c-1.5,1-1.3,0.8-3.3,1.1c-1.5-0.1-4.5-0.7-5.3-1.7c-0.7-1.4-1.5-2.5-1.9-3.8
		c-1-7.2,14.2-27.5,12.9-31.7c0,0-0.1-1.3-1.3-1.3c-4.5,0-14.7,4.6-24.6,12.5L555,65.9l-7.5,6.4c-3.6,2.8-14.9,12.4-20.7,7.5
		c-1.9-1.7-1.9-4.6-0.7-7c5.3-10.7,13.4-21,20.9-30.6c1.9-2.9,0.8-4,2.5-7.2c0.1-1,0.6-1.9,1.4-2.9L552,31c2.4-1.7,6.7-2.4,9.7-1
		c2.9,1.3,4.7,4,4.5,6.5c-4.6,9.9-12.2,12.7-19.1,22c-1.4,1.8-3.2,4-4.6,6.4l1.3-1l0.1-0.1c4.7-3.5,8.9-5.8,13.4-8.8
		c10-6.8,20-13.2,31.8-20c4.9-2.8,15.3-10.4,21.7-8.5c1.4,0.8,1.5,1.3,1.9,2.8c1.8,2.9-4.3,15.7-7.5,22.5
		c-1.8,3.6-6.1,13.1-4.3,13.1C601.1,64.9,601.2,64.9,601.5,64.7z"/>
	<path id="XMLID_14_" d="M694.2,50.6c3.1-6.3,5.7-12.4,8.8-16.4c3.5-5.4,8.8-6.3,12.8-6.8c2.2-0.3,5.1,1.9,5.6,4
		c1,2.2-0.8,4.2-2.4,5.7c-2.5,2.6-4.9,3.8-6.4,4.9c-1.4,1.5-3.1,2.5-4.2,3.5c-2.5,2.4-3.9,4.2-5.6,7.2c-2.4,4.5-2.8,7-1.8,10.8
		c1.4,6.1,8.9,5.3,13.5,4.5c8.9-1.9,17.8-3.2,26.3-6.1c5.8-1.9,11.7-4.7,16.8-7.6c2.8-0.6,5.6,0.3,3.6,2.1
		c-13.6,8.9-32.5,19.5-50.1,21.8c-8.1,1.1-18.1,0-20.9-8.5C688.4,63.6,690.9,57.7,694.2,50.6z"/>
	<path id="XMLID_16_" d="M739.3,0.2c1.7,1,3.2,1.9,0.7,5.7c-4.5,6-5.8,7.4-11.1,10.2c-0.3,0.1-5.6,2.1-8.3-0.6c-1-1-0.4-2.9-1-4
		c-1.5-4.6,5.7-7.2,11.1-9.5c2.1-1,1.5-0.4,2.8-1C736.5-0.1,738.2-0.2,739.3,0.2z"/>
</g>
</svg>
