<svg xmlns="http://www.w3.org/2000/svg" xmlns:xlink="http://www.w3.org/1999/xlink" preserveAspectRatio="xMidYMid" width="66" height="72" viewBox="0 0 66 72">
  <defs>
    <style>
      .cls-1 {
        stroke: #606060;
        stroke-linecap: round;
        stroke-width: 4px;
        fill: none;
        fill-rule: evenodd;
      }
    </style>
  </defs>
  <g>
    <path d="M4.000,12.969 C4.000,12.969 7.667,12.969 13.000,12.969 C21.333,12.969 28.000,21.302 28.000,28.969 C28.000,34.302 28.000,35.302 28.000,39.969 C28.000,48.635 34.000,54.969 43.000,54.969 C48.667,54.969 58.000,54.969 58.000,54.969 " transform="translate(2.08 4)" class="cls-1"/>
    <path d="M4.000,54.969 C4.000,54.969 9.667,54.969 15.000,54.969 C19.232,54.969 22.518,52.906 24.728,50.089 M30.747,17.158 C32.856,14.565 36.224,12.969 41.000,12.969 C46.667,12.969 58.000,12.969 58.000,12.969 " transform="translate(2.08 4)" class="cls-1"/>
    <path d="M52.000,45.969 L61.000,54.969 L52.000,63.969 " transform="translate(2.08 4)" class="cls-1"/>
    <path d="M52.000,3.969 L61.000,12.969 L52.000,21.969 " transform="translate(2.08 4)" class="cls-1"/>
  </g>
</svg>
