<svg xmlns="http://www.w3.org/2000/svg" xmlns:xlink="http://www.w3.org/1999/xlink" preserveAspectRatio="xMidYMid" width="18.78" height="19" viewBox="0 0 18.78 19">
  <defs>
    <style>
      .cls-1 {
        fill: #000;
        fill-rule: evenodd;
      }
    </style>
  </defs>
  <path d="M17.231,17.496 C16.235,18.480 14.857,19.001 13.245,19.001 L5.533,19.001 C3.951,19.001 2.584,18.479 1.580,17.493 C0.546,16.477 -0.001,15.062 -0.001,13.400 L-0.001,5.551 C-0.001,2.227 2.206,-0.006 5.490,-0.006 L13.288,-0.006 C14.891,-0.006 16.266,0.532 17.264,1.550 C18.255,2.560 18.778,3.944 18.778,5.551 L18.778,13.444 C18.778,15.094 18.243,16.496 17.231,17.496 ZM17.050,5.551 C17.050,4.415 16.700,3.458 16.037,2.782 C15.371,2.103 14.420,1.744 13.288,1.744 L5.490,1.744 C4.350,1.744 3.400,2.095 2.740,2.758 C2.078,3.425 1.728,4.391 1.728,5.551 L1.728,13.400 C1.728,14.578 2.093,15.559 2.784,16.237 C3.459,16.901 4.410,17.251 5.533,17.251 L13.245,17.251 C14.396,17.251 15.357,16.903 16.023,16.245 C16.695,15.581 17.050,14.612 17.050,13.444 L17.050,5.551 ZM14.402,5.545 C13.796,5.545 13.305,5.048 13.305,4.435 C13.305,3.822 13.796,3.324 14.402,3.324 C15.008,3.324 15.499,3.822 15.499,4.435 C15.499,5.048 15.008,5.545 14.402,5.545 ZM9.389,14.333 C6.725,14.333 4.558,12.140 4.558,9.444 C4.558,6.747 6.725,4.554 9.389,4.554 C12.053,4.554 14.220,6.747 14.220,9.444 C14.220,12.140 12.053,14.333 9.389,14.333 ZM9.389,6.304 C7.678,6.304 6.286,7.712 6.286,9.444 C6.286,11.175 7.678,12.584 9.389,12.584 C11.100,12.584 12.492,11.175 12.492,9.444 C12.492,7.712 11.100,6.304 9.389,6.304 Z" class="cls-1"/>
</svg>
