<svg xmlns="http://www.w3.org/2000/svg" xmlns:xlink="http://www.w3.org/1999/xlink" preserveAspectRatio="xMidYMid" width="18.5" height="15.219" viewBox="0 0 18.5 15.219">
  <defs>
    <style>
      .cls-1 {
        fill: #000;
        opacity: 0.5;
        fill-rule: evenodd;
      }
    </style>
  </defs>
  <path d="M18.507,1.790 C17.826,2.096 17.094,2.302 16.326,2.395 C17.110,1.920 17.712,1.167 17.996,0.269 C17.262,0.710 16.450,1.029 15.584,1.202 C14.892,0.455 13.905,-0.012 12.813,-0.012 C10.716,-0.012 9.016,1.709 9.016,3.831 C9.016,4.132 9.049,4.426 9.114,4.707 C5.958,4.547 3.160,3.017 1.288,0.692 C0.961,1.259 0.774,1.919 0.774,2.624 C0.774,3.957 1.444,5.133 2.463,5.822 C1.840,5.802 1.255,5.630 0.743,5.342 C0.743,5.358 0.743,5.374 0.743,5.390 C0.743,7.252 2.052,8.805 3.789,9.159 C3.470,9.246 3.135,9.293 2.788,9.293 C2.543,9.293 2.306,9.269 2.074,9.224 C2.557,10.751 3.959,11.862 5.621,11.893 C4.321,12.924 2.684,13.538 0.905,13.538 C0.598,13.538 0.296,13.520 -0.001,13.485 C1.680,14.575 3.676,15.211 5.820,15.211 C12.804,15.211 16.623,9.355 16.623,4.277 C16.623,4.111 16.620,3.944 16.612,3.780 C17.354,3.238 17.998,2.561 18.507,1.790 Z" class="cls-1"/>
</svg>
